# xmcd CD database file
#
# Track frame offsets:
#	150
#	12623
#	48096
#	73419
#	95482
#	121495
#	140556
#	153616
#
# Disc length: 2296 seconds
#
# Revision: 0
# Processed by: cddbd v1.5.1PL0 Copyright (c) Steve Scherf et al.
# Submitted via: CDex 1.51
#
DISCID=7408f608
DTITLE=Jimmy Raney - The Influence
DYEAR=1900
DGENRE=Jazz
TTITLE0=I Love You
TTITLE1=Body and Soul
TTITLE2=It Could Happen To You
TTITLE3=Suzanne
TTITLE4=Get Out of Town
TTITLE5=There Will Never Be Another You
TTITLE6=Ending of a Love Affair
TTITLE7=Dancing in the Dark
EXTD=
EXTT0=
EXTT1=
EXTT2=
EXTT3=
EXTT4=
EXTT5=
EXTT6=
EXTT7=
PLAYORDER=
